<svg xmlns="http://www.w3.org/2000/svg" width="900" height="520" viewBox="0 0 900 520">
  <rect width="900" height="520" fill="#f4f4f4"/>
  <rect x="34" y="34" width="832" height="452" rx="12" fill="#ffffff" stroke="#cccccc"/>
  <rect x="34" y="34" width="832" height="68" rx="12" fill="#111111"/>
  <text x="62" y="76" font-family="Segoe UI, Arial" font-size="28" font-weight="700" fill="#ffffff">Dashboard Screenshot Placeholder</text>
  <g font-family="Segoe UI, Arial" font-size="18" fill="#111111">
    <rect x="62" y="136" width="170" height="100" rx="8" fill="#fff5f5" stroke="#e21a2c"/>
    <text x="82" y="178" font-weight="700">All Out</text>
    <text x="82" y="210">Live count card</text>
    <rect x="252" y="136" width="170" height="100" rx="8" fill="#f0fff6" stroke="#198754"/>
    <text x="272" y="178" font-weight="700">Backup</text>
    <text x="272" y="210">Today status</text>
    <rect x="442" y="136" width="170" height="100" rx="8" fill="#fff7ea" stroke="#b36b00"/>
    <text x="462" y="178" font-weight="700">Alerts</text>
    <text x="462" y="210">Manager review</text>
    <rect x="632" y="136" width="170" height="100" rx="8" fill="#eef6ff" stroke="#2f6fed"/>
    <text x="652" y="178" font-weight="700">Available</text>
    <text x="652" y="210">Ready assets</text>
    <rect x="62" y="274" width="740" height="148" rx="8" fill="#f8f9fa" stroke="#cccccc"/>
    <text x="82" y="318" font-weight="700">Replace this placeholder with a real Dashboard screenshot.</text>
    <text x="82" y="354">Capture cards, compact health badges, and backup status.</text>
  </g>
</svg>

